<svg width="1063" height="133" viewBox="0 0 1063 133" fill="none" xmlns="http://www.w3.org/2000/svg">
<g filter="url(#filter0_d_134_1335)">
<rect x="4" width="1049" height="119" fill="#085E1F"/>
</g>
<path opacity="0.38" d="M67.5682 82H58.5682L74.9545 35.4545H85.3636L101.773 82H92.7727L80.3409 45H79.9773L67.5682 82ZM67.8636 63.75H92.4091V70.5227H67.8636V63.75ZM156.956 82H141.183V35.4545H157.274C161.896 35.4545 165.865 36.3864 169.183 38.25C172.517 40.0985 175.077 42.7576 176.865 46.2273C178.653 49.697 179.547 53.8485 179.547 58.6818C179.547 63.5303 178.646 67.697 176.842 71.1818C175.055 74.6667 172.471 77.3409 169.092 79.2045C165.729 81.0682 161.683 82 156.956 82ZM149.615 74.7045H156.547C159.789 74.7045 162.494 74.1136 164.661 72.9318C166.827 71.7348 168.456 69.9545 169.547 67.5909C170.638 65.2121 171.183 62.2424 171.183 58.6818C171.183 55.1212 170.638 52.1667 169.547 49.8182C168.456 47.4545 166.842 45.6894 164.706 44.5227C162.585 43.3409 159.949 42.75 156.797 42.75H149.615V74.7045ZM224.566 35.4545L236.679 72.0909H237.157L249.247 35.4545H258.52L242.111 82H231.702L215.316 35.4545H224.566ZM297.931 82V35.4545H328.204V42.5227H306.363V55.1591H326.635V62.2273H306.363V74.9318H328.385V82H297.931ZM370.086 82V35.4545H387.54C391.116 35.4545 394.116 36.0758 396.54 37.3182C398.98 38.5606 400.821 40.303 402.063 42.5455C403.321 44.7727 403.95 47.3712 403.95 50.3409C403.95 53.3258 403.313 55.9167 402.04 58.1136C400.783 60.2955 398.927 61.9848 396.472 63.1818C394.018 64.3636 391.003 64.9545 387.427 64.9545H374.995V57.9545H386.29C388.381 57.9545 390.093 57.6667 391.427 57.0909C392.76 56.5 393.745 55.6439 394.381 54.5227C395.033 53.3864 395.359 51.9924 395.359 50.3409C395.359 48.6894 395.033 47.2803 394.381 46.1136C393.73 44.9318 392.737 44.0379 391.404 43.4318C390.071 42.8106 388.351 42.5 386.245 42.5H378.518V82H370.086ZM394.131 60.9091L405.654 82H396.245L384.927 60.9091H394.131ZM442.945 42.5227V35.4545H480.082V42.5227H465.695V82H457.332V42.5227H442.945ZM528.953 35.4545V82H520.521V35.4545H528.953ZM596.659 48.25C596.447 46.2652 595.553 44.7197 593.977 43.6136C592.416 42.5076 590.386 41.9545 587.886 41.9545C586.129 41.9545 584.621 42.2197 583.363 42.75C582.106 43.2803 581.144 44 580.477 44.9091C579.81 45.8182 579.469 46.8561 579.454 48.0227C579.454 48.9924 579.674 49.8333 580.113 50.5455C580.568 51.2576 581.182 51.8636 581.954 52.3636C582.727 52.8485 583.583 53.2576 584.522 53.5909C585.462 53.9242 586.409 54.2045 587.363 54.4318L591.727 55.5227C593.485 55.9318 595.174 56.4848 596.795 57.1818C598.432 57.8788 599.894 58.7576 601.182 59.8182C602.485 60.8788 603.515 62.1591 604.272 63.6591C605.03 65.1591 605.409 66.9167 605.409 68.9318C605.409 71.6591 604.712 74.0606 603.318 76.1364C601.924 78.197 599.909 79.8106 597.272 80.9773C594.651 82.1288 591.477 82.7045 587.75 82.7045C584.129 82.7045 580.985 82.1439 578.318 81.0227C575.666 79.9015 573.591 78.2652 572.091 76.1136C570.606 73.9621 569.803 71.3409 569.682 68.25H577.977C578.098 69.8712 578.598 71.2197 579.477 72.2955C580.356 73.3712 581.5 74.1742 582.909 74.7045C584.333 75.2348 585.924 75.5 587.682 75.5C589.515 75.5 591.121 75.2273 592.5 74.6818C593.894 74.1212 594.985 73.3485 595.772 72.3636C596.56 71.3636 596.962 70.197 596.977 68.8636C596.962 67.6515 596.606 66.6515 595.909 65.8636C595.212 65.0606 594.235 64.3939 592.977 63.8636C591.735 63.3182 590.28 62.8333 588.613 62.4091L583.318 61.0455C579.485 60.0606 576.454 58.5682 574.227 56.5682C572.015 54.553 570.909 51.8788 570.909 48.5455C570.909 45.803 571.651 43.4015 573.136 41.3409C574.636 39.2803 576.674 37.6818 579.25 36.5455C581.826 35.3939 584.742 34.8182 588 34.8182C591.303 34.8182 594.197 35.3939 596.682 36.5455C599.182 37.6818 601.144 39.2652 602.568 41.2955C603.992 43.3106 604.727 45.6288 604.772 48.25H596.659ZM646.206 82V35.4545H676.479V42.5227H654.638V55.1591H674.91V62.2273H654.638V74.9318H676.66V82H646.206ZM718.361 35.4545H728.679L742.497 69.1818H743.043L756.861 35.4545H767.179V82H759.088V50.0227H758.656L745.793 81.8636H739.747L726.884 49.9545H726.452V82H718.361V35.4545ZM809.641 82V35.4545H839.914V42.5227H818.073V55.1591H838.345V62.2273H818.073V74.9318H840.095V82H809.641ZM920.046 35.4545V82H912.546L890.614 50.2955H890.228V82H881.796V35.4545H889.341L911.25 67.1818H911.66V35.4545H920.046ZM960.468 42.5227V35.4545H997.604V42.5227H983.218V82H974.854V42.5227H960.468Z" fill="#CDCDCD"/>
<rect x="297" width="482" height="119" fill="#1E1E1E" style="mix-blend-mode:hard-light"/>
<defs>
<filter id="filter0_d_134_1335" x="0.5" y="0" width="1062" height="132.5" filterUnits="userSpaceOnUse" color-interpolation-filters="sRGB">
<feFlood flood-opacity="0" result="BackgroundImageFix"/>
<feColorMatrix in="SourceAlpha" type="matrix" values="0 0 0 0 0 0 0 0 0 0 0 0 0 0 0 0 0 0 127 0" result="hardAlpha"/>
<feMorphology radius="2" operator="dilate" in="SourceAlpha" result="effect1_dropShadow_134_1335"/>
<feOffset dx="3" dy="7"/>
<feGaussianBlur stdDeviation="2.25"/>
<feComposite in2="hardAlpha" operator="out"/>
<feColorMatrix type="matrix" values="0 0 0 0 0 0 0 0 0 0 0 0 0 0 0 0 0 0 0.15 0"/>
<feBlend mode="normal" in2="BackgroundImageFix" result="effect1_dropShadow_134_1335"/>
<feBlend mode="normal" in="SourceGraphic" in2="effect1_dropShadow_134_1335" result="shape"/>
</filter>
</defs>
</svg>
